<mxfile host="app.diagrams.net" modified="2023-04-28T15:10:38.332Z" agent="Mozilla/5.0 (X11; Ubuntu; Linux x86_64; rv:109.0) Gecko/20100101 Firefox/112.0" etag="cbR4taY_O3njxrI_FeZB" version="21.2.3" type="device" pages="3">
  <diagram id="fC97jBpM_xTiCUfCGoVt" name="AvalonMM_to_hRAM">
    <mxGraphModel dx="959" dy="527" grid="1" gridSize="10" guides="1" tooltips="1" connect="1" arrows="1" fold="1" page="1" pageScale="1" pageWidth="850" pageHeight="1100" math="0" shadow="0">
      <root>
        <mxCell id="0" />
        <mxCell id="1" parent="0" />
        <mxCell id="tyazFwi2D3Fx87An2y98-1" value="" style="rounded=0;whiteSpace=wrap;html=1;" parent="1" vertex="1">
          <mxGeometry x="240" y="200" width="320" height="360" as="geometry" />
        </mxCell>
        <mxCell id="tyazFwi2D3Fx87An2y98-13" value="hbus_DQ" style="text;html=1;align=right;verticalAlign=middle;resizable=0;points=[];autosize=1;strokeColor=none;fillColor=none;fontSize=15;" parent="1" vertex="1">
          <mxGeometry x="460" y="265" width="90" height="30" as="geometry" />
        </mxCell>
        <mxCell id="tyazFwi2D3Fx87An2y98-14" value="hbus_CS_n" style="text;html=1;align=right;verticalAlign=middle;resizable=0;points=[];autosize=1;strokeColor=none;fillColor=none;fontSize=15;" parent="1" vertex="1">
          <mxGeometry x="450" y="345" width="100" height="30" as="geometry" />
        </mxCell>
        <mxCell id="tyazFwi2D3Fx87An2y98-15" value="hbus_CK" style="text;html=1;align=right;verticalAlign=middle;resizable=0;points=[];autosize=1;strokeColor=none;fillColor=none;fontSize=15;" parent="1" vertex="1">
          <mxGeometry x="460" y="425" width="90" height="30" as="geometry" />
        </mxCell>
        <mxCell id="tyazFwi2D3Fx87An2y98-16" value="&lt;div&gt;hbus_RESET_n&lt;/div&gt;" style="text;html=1;align=right;verticalAlign=middle;resizable=0;points=[];autosize=1;strokeColor=none;fillColor=none;fontSize=15;" parent="1" vertex="1">
          <mxGeometry x="420" y="385" width="130" height="30" as="geometry" />
        </mxCell>
        <mxCell id="tyazFwi2D3Fx87An2y98-17" value="&lt;div&gt;hbus_RWDS&lt;/div&gt;" style="text;html=1;align=right;verticalAlign=middle;resizable=0;points=[];autosize=1;strokeColor=none;fillColor=none;fontSize=15;" parent="1" vertex="1">
          <mxGeometry x="440" y="305" width="110" height="30" as="geometry" />
        </mxCell>
        <mxCell id="tyazFwi2D3Fx87An2y98-18" value="SSRAM_to_hRAM" style="rounded=0;whiteSpace=wrap;html=1;fontSize=15;" parent="1" vertex="1">
          <mxGeometry x="240" y="160" width="320" height="40" as="geometry" />
        </mxCell>
        <mxCell id="tyazFwi2D3Fx87An2y98-27" value="" style="endArrow=classic;html=1;rounded=0;fontSize=15;" parent="1" edge="1">
          <mxGeometry width="50" height="50" relative="1" as="geometry">
            <mxPoint x="560" y="440" as="sourcePoint" />
            <mxPoint x="620" y="440" as="targetPoint" />
          </mxGeometry>
        </mxCell>
        <mxCell id="tyazFwi2D3Fx87An2y98-29" value="1" style="text;html=1;align=center;verticalAlign=middle;resizable=0;points=[];autosize=1;strokeColor=none;fillColor=none;fontSize=15;" parent="1" vertex="1">
          <mxGeometry x="580" y="420" width="20" height="20" as="geometry" />
        </mxCell>
        <mxCell id="tyazFwi2D3Fx87An2y98-30" value="" style="endArrow=classic;html=1;rounded=0;fontSize=15;" parent="1" edge="1">
          <mxGeometry width="50" height="50" relative="1" as="geometry">
            <mxPoint x="560" y="399.9999999999999" as="sourcePoint" />
            <mxPoint x="620" y="399.9999999999999" as="targetPoint" />
          </mxGeometry>
        </mxCell>
        <mxCell id="tyazFwi2D3Fx87An2y98-31" value="1" style="text;html=1;align=center;verticalAlign=middle;resizable=0;points=[];autosize=1;strokeColor=none;fillColor=none;fontSize=15;" parent="1" vertex="1">
          <mxGeometry x="580" y="380" width="20" height="20" as="geometry" />
        </mxCell>
        <mxCell id="tyazFwi2D3Fx87An2y98-32" value="" style="endArrow=classic;html=1;rounded=0;fontSize=15;" parent="1" edge="1">
          <mxGeometry width="50" height="50" relative="1" as="geometry">
            <mxPoint x="560" y="359.9999999999999" as="sourcePoint" />
            <mxPoint x="620" y="359.9999999999999" as="targetPoint" />
          </mxGeometry>
        </mxCell>
        <mxCell id="tyazFwi2D3Fx87An2y98-33" value="1" style="text;html=1;align=center;verticalAlign=middle;resizable=0;points=[];autosize=1;strokeColor=none;fillColor=none;fontSize=15;" parent="1" vertex="1">
          <mxGeometry x="580" y="340" width="20" height="20" as="geometry" />
        </mxCell>
        <mxCell id="tyazFwi2D3Fx87An2y98-34" value="" style="endArrow=classic;html=1;rounded=0;fontSize=15;startArrow=classic;startFill=1;" parent="1" edge="1">
          <mxGeometry width="50" height="50" relative="1" as="geometry">
            <mxPoint x="560" y="319.9999999999999" as="sourcePoint" />
            <mxPoint x="620" y="319.9999999999999" as="targetPoint" />
          </mxGeometry>
        </mxCell>
        <mxCell id="tyazFwi2D3Fx87An2y98-35" value="1" style="text;html=1;align=center;verticalAlign=middle;resizable=0;points=[];autosize=1;strokeColor=none;fillColor=none;fontSize=15;" parent="1" vertex="1">
          <mxGeometry x="580" y="300" width="20" height="20" as="geometry" />
        </mxCell>
        <mxCell id="tyazFwi2D3Fx87An2y98-48" value="" style="endArrow=classic;html=1;rounded=0;fontSize=15;startArrow=classic;startFill=1;" parent="1" edge="1">
          <mxGeometry width="50" height="50" relative="1" as="geometry">
            <mxPoint x="560" y="279.9999999999999" as="sourcePoint" />
            <mxPoint x="620" y="279.9999999999999" as="targetPoint" />
          </mxGeometry>
        </mxCell>
        <mxCell id="tyazFwi2D3Fx87An2y98-49" value="8" style="text;html=1;align=center;verticalAlign=middle;resizable=0;points=[];autosize=1;strokeColor=none;fillColor=none;fontSize=15;" parent="1" vertex="1">
          <mxGeometry x="580" y="260" width="20" height="20" as="geometry" />
        </mxCell>
        <mxCell id="ZhGK623JIX5hzIh3tK1e-1" value="" style="endArrow=classic;html=1;rounded=0;fontSize=15;" edge="1" parent="1">
          <mxGeometry width="50" height="50" relative="1" as="geometry">
            <mxPoint x="180" y="360" as="sourcePoint" />
            <mxPoint x="240" y="360" as="targetPoint" />
          </mxGeometry>
        </mxCell>
        <mxCell id="ZhGK623JIX5hzIh3tK1e-2" value="1" style="text;html=1;align=center;verticalAlign=middle;resizable=0;points=[];autosize=1;strokeColor=none;fillColor=none;fontSize=15;" vertex="1" parent="1">
          <mxGeometry x="200" y="379.31" width="20" height="20" as="geometry" />
        </mxCell>
        <mxCell id="ZhGK623JIX5hzIh3tK1e-3" value="" style="endArrow=classic;html=1;rounded=0;fontSize=15;" edge="1" parent="1">
          <mxGeometry width="50" height="50" relative="1" as="geometry">
            <mxPoint x="180" y="319.9999999999999" as="sourcePoint" />
            <mxPoint x="240" y="319.9999999999999" as="targetPoint" />
          </mxGeometry>
        </mxCell>
        <mxCell id="ZhGK623JIX5hzIh3tK1e-4" value="1" style="text;html=1;align=center;verticalAlign=middle;resizable=0;points=[];autosize=1;strokeColor=none;fillColor=none;fontSize=15;" vertex="1" parent="1">
          <mxGeometry x="200" y="339.31" width="20" height="20" as="geometry" />
        </mxCell>
        <mxCell id="ZhGK623JIX5hzIh3tK1e-5" value="" style="endArrow=classic;html=1;rounded=0;fontSize=15;" edge="1" parent="1">
          <mxGeometry width="50" height="50" relative="1" as="geometry">
            <mxPoint x="180" y="400" as="sourcePoint" />
            <mxPoint x="240" y="400" as="targetPoint" />
          </mxGeometry>
        </mxCell>
        <mxCell id="ZhGK623JIX5hzIh3tK1e-6" value="1" style="text;html=1;align=center;verticalAlign=middle;resizable=0;points=[];autosize=1;strokeColor=none;fillColor=none;fontSize=15;" vertex="1" parent="1">
          <mxGeometry x="200" y="220" width="20" height="20" as="geometry" />
        </mxCell>
        <mxCell id="ZhGK623JIX5hzIh3tK1e-7" value="" style="endArrow=none;html=1;rounded=0;fontSize=15;startArrow=classic;startFill=1;endFill=0;" edge="1" parent="1">
          <mxGeometry width="50" height="50" relative="1" as="geometry">
            <mxPoint x="180" y="520" as="sourcePoint" />
            <mxPoint x="240" y="520" as="targetPoint" />
          </mxGeometry>
        </mxCell>
        <mxCell id="ZhGK623JIX5hzIh3tK1e-8" value="32" style="text;html=1;align=center;verticalAlign=middle;resizable=0;points=[];autosize=1;strokeColor=none;fillColor=none;fontSize=15;" vertex="1" parent="1">
          <mxGeometry x="190" y="255" width="40" height="30" as="geometry" />
        </mxCell>
        <mxCell id="ZhGK623JIX5hzIh3tK1e-9" value="&lt;font style=&quot;font-size: 15px;&quot;&gt;ssram_&lt;/font&gt;&lt;font style=&quot;font-size: 15px;&quot;&gt;&lt;font style=&quot;font-size: 15px;&quot;&gt;address&lt;/font&gt;&lt;/font&gt;" style="text;html=1;align=left;verticalAlign=middle;resizable=0;points=[];autosize=1;strokeColor=none;fillColor=none;" vertex="1" parent="1">
          <mxGeometry x="250" y="265" width="130" height="30" as="geometry" />
        </mxCell>
        <mxCell id="ZhGK623JIX5hzIh3tK1e-10" value="&lt;font style=&quot;font-size: 15px;&quot;&gt;ssram_&lt;/font&gt;&lt;font style=&quot;font-size: 15px;&quot;&gt;out&lt;/font&gt;" style="text;html=1;align=left;verticalAlign=middle;resizable=0;points=[];autosize=1;strokeColor=none;fillColor=none;" vertex="1" parent="1">
          <mxGeometry x="250" y="425" width="90" height="30" as="geometry" />
        </mxCell>
        <mxCell id="ZhGK623JIX5hzIh3tK1e-11" value="&lt;font style=&quot;font-size: 15px;&quot;&gt;ssram_i&lt;/font&gt;&lt;font style=&quot;font-size: 15px;&quot;&gt;n&lt;/font&gt;" style="text;html=1;align=left;verticalAlign=middle;resizable=0;points=[];autosize=1;strokeColor=none;fillColor=none;" vertex="1" parent="1">
          <mxGeometry x="250" y="305" width="80" height="30" as="geometry" />
        </mxCell>
        <mxCell id="ZhGK623JIX5hzIh3tK1e-12" value="&lt;font style=&quot;font-size: 15px;&quot;&gt;ssram_&lt;/font&gt;&lt;font style=&quot;font-size: 15px;&quot;&gt;&lt;font style=&quot;font-size: 15px;&quot;&gt;validout&lt;/font&gt;&lt;/font&gt;" style="text;html=1;align=left;verticalAlign=middle;resizable=0;points=[];autosize=1;strokeColor=none;fillColor=none;" vertex="1" parent="1">
          <mxGeometry x="250" y="465" width="120" height="30" as="geometry" />
        </mxCell>
        <mxCell id="ZhGK623JIX5hzIh3tK1e-13" value="&lt;font style=&quot;font-size: 15px;&quot;&gt;ssram_&lt;/font&gt;&lt;font style=&quot;font-size: 15px;&quot;&gt;WE&lt;/font&gt;" style="text;html=1;align=left;verticalAlign=middle;resizable=0;points=[];autosize=1;strokeColor=none;fillColor=none;rotation=0;" vertex="1" parent="1">
          <mxGeometry x="250" y="385" width="100" height="30" as="geometry" />
        </mxCell>
        <mxCell id="ZhGK623JIX5hzIh3tK1e-14" value="&lt;font style=&quot;font-size: 15px;&quot;&gt;ssram_&lt;/font&gt;&lt;font style=&quot;font-size: 15px;&quot;&gt;OE&lt;/font&gt;" style="text;html=1;align=left;verticalAlign=middle;resizable=0;points=[];autosize=1;strokeColor=none;fillColor=none;rotation=0;" vertex="1" parent="1">
          <mxGeometry x="250" y="345" width="90" height="30" as="geometry" />
        </mxCell>
        <mxCell id="ZhGK623JIX5hzIh3tK1e-15" value="&lt;font style=&quot;font-size: 15px;&quot;&gt;ssram_&lt;/font&gt;&lt;font style=&quot;font-size: 15px;&quot;&gt;busy&lt;/font&gt;" style="text;html=1;align=left;verticalAlign=middle;resizable=0;points=[];autosize=1;strokeColor=none;fillColor=none;" vertex="1" parent="1">
          <mxGeometry x="250" y="505" width="100" height="30" as="geometry" />
        </mxCell>
        <mxCell id="ZhGK623JIX5hzIh3tK1e-16" value="&lt;font style=&quot;font-size: 15px;&quot;&gt;ssram_&lt;/font&gt;&lt;font style=&quot;font-size: 15px;&quot;&gt;&lt;font style=&quot;font-size: 15px;&quot;&gt;CS&lt;/font&gt;&lt;/font&gt;" style="text;html=1;align=left;verticalAlign=middle;resizable=0;points=[];autosize=1;strokeColor=none;fillColor=none;" vertex="1" parent="1">
          <mxGeometry x="250" y="225" width="90" height="30" as="geometry" />
        </mxCell>
        <mxCell id="ZhGK623JIX5hzIh3tK1e-17" value="" style="endArrow=none;html=1;rounded=0;fontSize=15;startArrow=classic;startFill=1;endFill=0;" edge="1" parent="1">
          <mxGeometry width="50" height="50" relative="1" as="geometry">
            <mxPoint x="180" y="480" as="sourcePoint" />
            <mxPoint x="240" y="480" as="targetPoint" />
          </mxGeometry>
        </mxCell>
        <mxCell id="ZhGK623JIX5hzIh3tK1e-18" value="" style="endArrow=none;html=1;rounded=0;fontSize=15;startArrow=classic;startFill=1;endFill=0;" edge="1" parent="1">
          <mxGeometry width="50" height="50" relative="1" as="geometry">
            <mxPoint x="180" y="440" as="sourcePoint" />
            <mxPoint x="240" y="440" as="targetPoint" />
          </mxGeometry>
        </mxCell>
        <mxCell id="ZhGK623JIX5hzIh3tK1e-19" value="" style="endArrow=classic;html=1;rounded=0;fontSize=15;" edge="1" parent="1">
          <mxGeometry width="50" height="50" relative="1" as="geometry">
            <mxPoint x="180" y="280" as="sourcePoint" />
            <mxPoint x="240" y="280" as="targetPoint" />
          </mxGeometry>
        </mxCell>
        <mxCell id="ZhGK623JIX5hzIh3tK1e-20" value="" style="endArrow=classic;html=1;rounded=0;fontSize=15;" edge="1" parent="1">
          <mxGeometry width="50" height="50" relative="1" as="geometry">
            <mxPoint x="180" y="239.9999999999999" as="sourcePoint" />
            <mxPoint x="240" y="239.9999999999999" as="targetPoint" />
          </mxGeometry>
        </mxCell>
        <mxCell id="ZhGK623JIX5hzIh3tK1e-21" value="1" style="text;html=1;align=center;verticalAlign=middle;resizable=0;points=[];autosize=1;strokeColor=none;fillColor=none;fontSize=15;" vertex="1" parent="1">
          <mxGeometry x="200" y="500" width="20" height="20" as="geometry" />
        </mxCell>
        <mxCell id="ZhGK623JIX5hzIh3tK1e-22" value="1" style="text;html=1;align=center;verticalAlign=middle;resizable=0;points=[];autosize=1;strokeColor=none;fillColor=none;fontSize=15;" vertex="1" parent="1">
          <mxGeometry x="200" y="460" width="20" height="20" as="geometry" />
        </mxCell>
        <mxCell id="ZhGK623JIX5hzIh3tK1e-23" value="16" style="text;html=1;align=center;verticalAlign=middle;resizable=0;points=[];autosize=1;strokeColor=none;fillColor=none;fontSize=15;" vertex="1" parent="1">
          <mxGeometry x="195" y="300" width="30" height="20" as="geometry" />
        </mxCell>
        <mxCell id="ZhGK623JIX5hzIh3tK1e-24" value="16" style="text;html=1;align=center;verticalAlign=middle;resizable=0;points=[];autosize=1;strokeColor=none;fillColor=none;fontSize=15;" vertex="1" parent="1">
          <mxGeometry x="195" y="419.31" width="30" height="20" as="geometry" />
        </mxCell>
      </root>
    </mxGraphModel>
  </diagram>
  <diagram id="aHrM8a04h2BsJnm2WcV5" name="SSRAM_to_hRAM: RTL">
    <mxGraphModel dx="1066" dy="586" grid="1" gridSize="10" guides="1" tooltips="1" connect="1" arrows="1" fold="1" page="1" pageScale="1" pageWidth="850" pageHeight="1100" math="0" shadow="0">
      <root>
        <mxCell id="0" />
        <mxCell id="1" parent="0" />
        <mxCell id="FYZrNViLtJnUXUs6LQGY-13" style="edgeStyle=orthogonalEdgeStyle;rounded=0;orthogonalLoop=1;jettySize=auto;html=1;exitX=0.5;exitY=0;exitDx=0;exitDy=0;fontSize=15;" edge="1" parent="1" source="FYZrNViLtJnUXUs6LQGY-1">
          <mxGeometry relative="1" as="geometry">
            <mxPoint x="520" y="80" as="targetPoint" />
          </mxGeometry>
        </mxCell>
        <mxCell id="FYZrNViLtJnUXUs6LQGY-1" value="RW" style="rounded=0;whiteSpace=wrap;html=1;direction=south;horizontal=1;fontSize=15;" vertex="1" parent="1">
          <mxGeometry x="240" y="60" width="40" height="40" as="geometry" />
        </mxCell>
        <mxCell id="FYZrNViLtJnUXUs6LQGY-15" style="edgeStyle=orthogonalEdgeStyle;rounded=0;orthogonalLoop=1;jettySize=auto;html=1;exitX=0.5;exitY=0;exitDx=0;exitDy=0;" edge="1" parent="1" source="FYZrNViLtJnUXUs6LQGY-2">
          <mxGeometry relative="1" as="geometry">
            <mxPoint x="520" y="160" as="targetPoint" />
          </mxGeometry>
        </mxCell>
        <mxCell id="FYZrNViLtJnUXUs6LQGY-2" value="AS" style="rounded=0;whiteSpace=wrap;html=1;direction=south;horizontal=1;fontSize=15;" vertex="1" parent="1">
          <mxGeometry x="240" y="140" width="40" height="40" as="geometry" />
        </mxCell>
        <mxCell id="FYZrNViLtJnUXUs6LQGY-18" style="edgeStyle=orthogonalEdgeStyle;rounded=0;orthogonalLoop=1;jettySize=auto;html=1;exitX=0.5;exitY=0;exitDx=0;exitDy=0;" edge="1" parent="1" source="FYZrNViLtJnUXUs6LQGY-3">
          <mxGeometry relative="1" as="geometry">
            <mxPoint x="520" y="240" as="targetPoint" />
          </mxGeometry>
        </mxCell>
        <mxCell id="FYZrNViLtJnUXUs6LQGY-3" value="BT" style="rounded=0;whiteSpace=wrap;html=1;direction=south;horizontal=1;fontSize=15;" vertex="1" parent="1">
          <mxGeometry x="240" y="220" width="40" height="40" as="geometry" />
        </mxCell>
        <mxCell id="FYZrNViLtJnUXUs6LQGY-21" style="edgeStyle=orthogonalEdgeStyle;rounded=0;orthogonalLoop=1;jettySize=auto;html=1;" edge="1" parent="1">
          <mxGeometry relative="1" as="geometry">
            <mxPoint x="520" y="320" as="targetPoint" />
            <mxPoint x="360" y="420" as="sourcePoint" />
            <Array as="points">
              <mxPoint x="360" y="420" />
              <mxPoint x="360" y="320" />
            </Array>
          </mxGeometry>
        </mxCell>
        <mxCell id="FYZrNViLtJnUXUs6LQGY-27" style="edgeStyle=orthogonalEdgeStyle;rounded=0;orthogonalLoop=1;jettySize=auto;html=1;" edge="1" parent="1">
          <mxGeometry relative="1" as="geometry">
            <mxPoint x="680" y="520" as="targetPoint" />
            <mxPoint x="360" y="420" as="sourcePoint" />
            <Array as="points">
              <mxPoint x="360" y="520" />
            </Array>
          </mxGeometry>
        </mxCell>
        <mxCell id="FYZrNViLtJnUXUs6LQGY-4" value="row_upCol_address" style="rounded=0;whiteSpace=wrap;html=1;direction=south;horizontal=0;fontSize=15;" vertex="1" parent="1">
          <mxGeometry x="240" y="320" width="40" height="200" as="geometry" />
        </mxCell>
        <mxCell id="FYZrNViLtJnUXUs6LQGY-55" style="edgeStyle=orthogonalEdgeStyle;rounded=0;orthogonalLoop=1;jettySize=auto;html=1;exitX=0.5;exitY=0;exitDx=0;exitDy=0;" edge="1" parent="1" source="FYZrNViLtJnUXUs6LQGY-5">
          <mxGeometry relative="1" as="geometry">
            <mxPoint x="600" y="1120" as="targetPoint" />
          </mxGeometry>
        </mxCell>
        <mxCell id="FYZrNViLtJnUXUs6LQGY-5" value="lowCol_address (3)" style="rounded=0;whiteSpace=wrap;html=1;direction=south;horizontal=0;fontSize=15;" vertex="1" parent="1">
          <mxGeometry x="240" y="1040" width="40" height="160" as="geometry" />
        </mxCell>
        <mxCell id="FYZrNViLtJnUXUs6LQGY-6" value="" style="triangle;whiteSpace=wrap;html=1;direction=north;fontSize=15;" vertex="1" parent="1">
          <mxGeometry x="270" y="510" width="10" height="10" as="geometry" />
        </mxCell>
        <mxCell id="FYZrNViLtJnUXUs6LQGY-9" value="" style="triangle;whiteSpace=wrap;html=1;direction=north;fontSize=15;" vertex="1" parent="1">
          <mxGeometry x="270" y="1190" width="10" height="10" as="geometry" />
        </mxCell>
        <mxCell id="FYZrNViLtJnUXUs6LQGY-10" value="" style="triangle;whiteSpace=wrap;html=1;direction=north;fontSize=15;" vertex="1" parent="1">
          <mxGeometry x="270" y="250" width="10" height="10" as="geometry" />
        </mxCell>
        <mxCell id="FYZrNViLtJnUXUs6LQGY-11" value="" style="triangle;whiteSpace=wrap;html=1;direction=north;fontSize=15;" vertex="1" parent="1">
          <mxGeometry x="270" y="170" width="10" height="10" as="geometry" />
        </mxCell>
        <mxCell id="FYZrNViLtJnUXUs6LQGY-12" value="" style="triangle;whiteSpace=wrap;html=1;direction=north;fontSize=15;" vertex="1" parent="1">
          <mxGeometry x="270" y="90" width="10" height="10" as="geometry" />
        </mxCell>
        <mxCell id="FYZrNViLtJnUXUs6LQGY-20" value="5" style="text;html=1;align=left;verticalAlign=middle;resizable=0;points=[];autosize=1;strokeColor=none;fillColor=none;fontSize=15;" vertex="1" parent="1">
          <mxGeometry x="540" y="225" width="30" height="30" as="geometry" />
        </mxCell>
        <mxCell id="FYZrNViLtJnUXUs6LQGY-26" value="29 downto 25" style="text;html=1;align=left;verticalAlign=middle;resizable=0;points=[];autosize=1;strokeColor=none;fillColor=none;fontSize=15;rotation=0;" vertex="1" parent="1">
          <mxGeometry x="370" y="290" width="110" height="30" as="geometry" />
        </mxCell>
        <mxCell id="FYZrNViLtJnUXUs6LQGY-29" value="4 downto 0" style="text;html=1;align=left;verticalAlign=middle;resizable=0;points=[];autosize=1;strokeColor=none;fillColor=none;fontSize=15;" vertex="1" parent="1">
          <mxGeometry x="540" y="307" width="100" height="30" as="geometry" />
        </mxCell>
        <mxCell id="FYZrNViLtJnUXUs6LQGY-32" value="24 downto 17" style="text;html=1;align=left;verticalAlign=middle;resizable=0;points=[];autosize=1;strokeColor=none;fillColor=none;fontSize=15;rotation=0;" vertex="1" parent="1">
          <mxGeometry x="370" y="490" width="110" height="30" as="geometry" />
        </mxCell>
        <mxCell id="FYZrNViLtJnUXUs6LQGY-35" value="" style="endArrow=none;html=1;rounded=0;exitX=0.5;exitY=0;exitDx=0;exitDy=0;" edge="1" parent="1" source="FYZrNViLtJnUXUs6LQGY-4">
          <mxGeometry width="50" height="50" relative="1" as="geometry">
            <mxPoint x="320" y="440" as="sourcePoint" />
            <mxPoint x="360" y="420" as="targetPoint" />
          </mxGeometry>
        </mxCell>
        <mxCell id="FYZrNViLtJnUXUs6LQGY-37" value="16 downto 9" style="text;html=1;align=left;verticalAlign=middle;resizable=0;points=[];autosize=1;strokeColor=none;fillColor=none;fontSize=15;rotation=0;" vertex="1" parent="1">
          <mxGeometry x="370" y="570" width="100" height="30" as="geometry" />
        </mxCell>
        <mxCell id="FYZrNViLtJnUXUs6LQGY-38" style="edgeStyle=orthogonalEdgeStyle;rounded=0;orthogonalLoop=1;jettySize=auto;html=1;" edge="1" parent="1">
          <mxGeometry relative="1" as="geometry">
            <mxPoint x="680" y="600" as="targetPoint" />
            <mxPoint x="360" y="520" as="sourcePoint" />
            <Array as="points">
              <mxPoint x="360" y="600" />
            </Array>
          </mxGeometry>
        </mxCell>
        <mxCell id="FYZrNViLtJnUXUs6LQGY-39" value="" style="endArrow=none;html=1;rounded=0;strokeWidth=1;" edge="1" parent="1">
          <mxGeometry width="50" height="50" relative="1" as="geometry">
            <mxPoint x="520" y="440" as="sourcePoint" />
            <mxPoint x="520" y="40" as="targetPoint" />
          </mxGeometry>
        </mxCell>
        <mxCell id="FYZrNViLtJnUXUs6LQGY-40" value="6" style="text;html=1;align=left;verticalAlign=middle;resizable=0;points=[];autosize=1;strokeColor=none;fillColor=none;fontSize=15;" vertex="1" parent="1">
          <mxGeometry x="540" y="145" width="30" height="30" as="geometry" />
        </mxCell>
        <mxCell id="FYZrNViLtJnUXUs6LQGY-41" value="7 " style="text;html=1;align=left;verticalAlign=middle;resizable=0;points=[];autosize=1;strokeColor=none;fillColor=none;fontSize=15;" vertex="1" parent="1">
          <mxGeometry x="540" y="65" width="30" height="30" as="geometry" />
        </mxCell>
        <mxCell id="FYZrNViLtJnUXUs6LQGY-44" style="edgeStyle=orthogonalEdgeStyle;rounded=0;orthogonalLoop=1;jettySize=auto;html=1;" edge="1" parent="1">
          <mxGeometry relative="1" as="geometry">
            <mxPoint x="680" y="680" as="targetPoint" />
            <mxPoint x="360" y="600" as="sourcePoint" />
            <Array as="points">
              <mxPoint x="360" y="680" />
            </Array>
          </mxGeometry>
        </mxCell>
        <mxCell id="FYZrNViLtJnUXUs6LQGY-46" value="8 downto 1" style="text;html=1;align=left;verticalAlign=middle;resizable=0;points=[];autosize=1;strokeColor=none;fillColor=none;fontSize=15;rotation=0;" vertex="1" parent="1">
          <mxGeometry x="370" y="650" width="100" height="30" as="geometry" />
        </mxCell>
        <mxCell id="FYZrNViLtJnUXUs6LQGY-47" value="&quot;0000000&quot;" style="text;html=1;align=right;verticalAlign=middle;resizable=0;points=[];autosize=1;strokeColor=none;fillColor=none;fontSize=15;" vertex="1" parent="1">
          <mxGeometry x="340" y="870" width="90" height="30" as="geometry" />
        </mxCell>
        <mxCell id="FYZrNViLtJnUXUs6LQGY-49" value="0 downto 0" style="text;html=1;align=left;verticalAlign=middle;resizable=0;points=[];autosize=1;strokeColor=none;fillColor=none;fontSize=15;rotation=0;" vertex="1" parent="1">
          <mxGeometry x="370" y="770" width="100" height="30" as="geometry" />
        </mxCell>
        <mxCell id="FYZrNViLtJnUXUs6LQGY-50" style="edgeStyle=orthogonalEdgeStyle;rounded=0;orthogonalLoop=1;jettySize=auto;html=1;" edge="1" parent="1">
          <mxGeometry relative="1" as="geometry">
            <mxPoint x="520" y="800" as="targetPoint" />
            <mxPoint x="360" y="680" as="sourcePoint" />
            <Array as="points">
              <mxPoint x="360" y="800" />
            </Array>
          </mxGeometry>
        </mxCell>
        <mxCell id="FYZrNViLtJnUXUs6LQGY-51" value="" style="endArrow=classic;html=1;rounded=0;" edge="1" parent="1">
          <mxGeometry width="50" height="50" relative="1" as="geometry">
            <mxPoint x="440" y="881" as="sourcePoint" />
            <mxPoint x="520" y="881" as="targetPoint" />
          </mxGeometry>
        </mxCell>
        <mxCell id="FYZrNViLtJnUXUs6LQGY-52" value="" style="endArrow=none;html=1;rounded=0;strokeWidth=1;" edge="1" parent="1">
          <mxGeometry width="50" height="50" relative="1" as="geometry">
            <mxPoint x="520" y="920" as="sourcePoint" />
            <mxPoint x="520" y="760" as="targetPoint" />
          </mxGeometry>
        </mxCell>
        <mxCell id="FYZrNViLtJnUXUs6LQGY-53" value="&quot;00000&quot;" style="text;html=1;align=right;verticalAlign=middle;resizable=0;points=[];autosize=1;strokeColor=none;fillColor=none;fontSize=15;" vertex="1" parent="1">
          <mxGeometry x="430" y="1025" width="80" height="30" as="geometry" />
        </mxCell>
        <mxCell id="FYZrNViLtJnUXUs6LQGY-54" value="" style="endArrow=classic;html=1;rounded=0;" edge="1" parent="1">
          <mxGeometry width="50" height="50" relative="1" as="geometry">
            <mxPoint x="520" y="1040" as="sourcePoint" />
            <mxPoint x="600" y="1040" as="targetPoint" />
          </mxGeometry>
        </mxCell>
        <mxCell id="FYZrNViLtJnUXUs6LQGY-56" value="" style="endArrow=none;html=1;rounded=0;strokeWidth=1;" edge="1" parent="1">
          <mxGeometry width="50" height="50" relative="1" as="geometry">
            <mxPoint x="600" y="1160" as="sourcePoint" />
            <mxPoint x="600" y="840" as="targetPoint" />
          </mxGeometry>
        </mxCell>
        <mxCell id="FYZrNViLtJnUXUs6LQGY-58" value="29" style="text;html=1;align=center;verticalAlign=middle;resizable=0;points=[];autosize=1;strokeColor=none;fillColor=none;fontSize=15;" vertex="1" parent="1">
          <mxGeometry x="300" y="390" width="40" height="30" as="geometry" />
        </mxCell>
        <mxCell id="j7dzG-3Mvy6Js8ZEHaBQ-3" value="" style="endArrow=classic;html=1;rounded=0;" edge="1" parent="1">
          <mxGeometry width="50" height="50" relative="1" as="geometry">
            <mxPoint x="520" y="440" as="sourcePoint" />
            <mxPoint x="680" y="440" as="targetPoint" />
          </mxGeometry>
        </mxCell>
        <mxCell id="j7dzG-3Mvy6Js8ZEHaBQ-4" value="" style="endArrow=classic;html=1;rounded=0;" edge="1" parent="1">
          <mxGeometry width="50" height="50" relative="1" as="geometry">
            <mxPoint x="520" y="760" as="sourcePoint" />
            <mxPoint x="680" y="760" as="targetPoint" />
          </mxGeometry>
        </mxCell>
        <mxCell id="j7dzG-3Mvy6Js8ZEHaBQ-6" value="" style="endArrow=classic;html=1;rounded=0;" edge="1" parent="1">
          <mxGeometry width="50" height="50" relative="1" as="geometry">
            <mxPoint x="600" y="840" as="sourcePoint" />
            <mxPoint x="680" y="840" as="targetPoint" />
          </mxGeometry>
        </mxCell>
        <mxCell id="j7dzG-3Mvy6Js8ZEHaBQ-8" value="CA0" style="text;html=1;align=center;verticalAlign=middle;resizable=0;points=[];autosize=1;strokeColor=none;fillColor=none;fontSize=15;" vertex="1" parent="1">
          <mxGeometry x="600" y="409.5" width="50" height="30" as="geometry" />
        </mxCell>
        <mxCell id="j7dzG-3Mvy6Js8ZEHaBQ-9" value="CA3" style="text;html=1;align=center;verticalAlign=middle;resizable=0;points=[];autosize=1;strokeColor=none;fillColor=none;fontSize=15;" vertex="1" parent="1">
          <mxGeometry x="600" y="650.5" width="50" height="30" as="geometry" />
        </mxCell>
        <mxCell id="j7dzG-3Mvy6Js8ZEHaBQ-10" value="CA4" style="text;html=1;align=center;verticalAlign=middle;resizable=0;points=[];autosize=1;strokeColor=none;fillColor=none;fontSize=15;" vertex="1" parent="1">
          <mxGeometry x="600" y="730.5" width="50" height="30" as="geometry" />
        </mxCell>
        <mxCell id="j7dzG-3Mvy6Js8ZEHaBQ-11" value="CA2" style="text;html=1;align=center;verticalAlign=middle;resizable=0;points=[];autosize=1;strokeColor=none;fillColor=none;fontSize=15;" vertex="1" parent="1">
          <mxGeometry x="600" y="570.5" width="50" height="30" as="geometry" />
        </mxCell>
        <mxCell id="j7dzG-3Mvy6Js8ZEHaBQ-12" value="CA1" style="text;html=1;align=center;verticalAlign=middle;resizable=0;points=[];autosize=1;strokeColor=none;fillColor=none;fontSize=15;" vertex="1" parent="1">
          <mxGeometry x="600" y="490.5" width="50" height="30" as="geometry" />
        </mxCell>
        <mxCell id="j7dzG-3Mvy6Js8ZEHaBQ-13" value="CA5" style="text;html=1;align=center;verticalAlign=middle;resizable=0;points=[];autosize=1;strokeColor=none;fillColor=none;fontSize=15;" vertex="1" parent="1">
          <mxGeometry x="600" y="810" width="50" height="30" as="geometry" />
        </mxCell>
        <mxCell id="j7dzG-3Mvy6Js8ZEHaBQ-26" style="edgeStyle=orthogonalEdgeStyle;rounded=0;orthogonalLoop=1;jettySize=auto;html=1;exitX=0.5;exitY=1;exitDx=0;exitDy=0;" edge="1" parent="1" source="j7dzG-3Mvy6Js8ZEHaBQ-24">
          <mxGeometry relative="1" as="geometry">
            <mxPoint x="1000" y="1040" as="targetPoint" />
            <Array as="points">
              <mxPoint x="720" y="1040" />
            </Array>
          </mxGeometry>
        </mxCell>
        <mxCell id="j7dzG-3Mvy6Js8ZEHaBQ-24" value="&lt;font style=&quot;font-size: 15px;&quot;&gt;SHIFT_REG_DDR&lt;/font&gt;" style="rounded=0;whiteSpace=wrap;html=1;horizontal=0;" vertex="1" parent="1">
          <mxGeometry x="680" y="400" width="80" height="490" as="geometry" />
        </mxCell>
        <mxCell id="j7dzG-3Mvy6Js8ZEHaBQ-25" value="" style="triangle;whiteSpace=wrap;html=1;direction=south;fontSize=15;" vertex="1" parent="1">
          <mxGeometry x="750" y="400" width="10" height="10" as="geometry" />
        </mxCell>
      </root>
    </mxGraphModel>
  </diagram>
  <diagram id="odnvakmhzm58qmFqixX_" name="SSRAM_to_hRAM: FSM">
    <mxGraphModel dx="959" dy="527" grid="1" gridSize="10" guides="1" tooltips="1" connect="1" arrows="1" fold="1" page="1" pageScale="1" pageWidth="850" pageHeight="1100" math="0" shadow="0">
      <root>
        <mxCell id="0" />
        <mxCell id="1" parent="0" />
      </root>
    </mxGraphModel>
  </diagram>
</mxfile>
